# xmcd
#
# Track frame offsets: 
#        150
#        11720
#        23985
#        38063
#        50540
#        64243
#        74831
#        92976
#        104998
#        115593
#        129393
#        148273
#
# Disc length: 2202 seconds
#
# Revision: 0
# Processed by: cddbd v1.5.2PL0 Copyright (c) Steve Scherf et al.
# Submitted via: ExactAudioCopy v0.95b4
#
DISCID=b908980c
DTITLE=Johnny Cash - Best of Johnny Cash
DYEAR=2007
DGENRE=Country
TTITLE0=I Walk The Lline
TTITLE1=Folsom Prison Blues (Live)
TTITLE2=Orange Blossom Special
TTITLE3=Jackson (with June Carter)
TTITLE4=Don't Take Your Guns To Town
TTITLE5=Daddy Sang Bass
TTITLE6=One Piece At a Time
TTITLE7=I'm So Lonesome I could Cry
TTITLE8=Hey Porter
TTITLE9=It Ain't Me Babe
TTITLE10=The Ballad Of Ira Hayes
TTITLE11=(Ghost) Riders Of The Sky
EXTD=
EXTT0=
EXTT1=
EXTT2=
EXTT3=
EXTT4=
EXTT5=
EXTT6=
EXTT7=
EXTT8=
EXTT9=
EXTT10=
EXTT11=
PLAYORDER=
